<mxfile host="app.diagrams.net" modified="2024-07-08T09:19:26.365Z" agent="Mozilla/5.0 (Windows NT 10.0; Win64; x64) AppleWebKit/537.36 (KHTML, like Gecko) Chrome/126.0.0.0 Safari/537.36 Edg/126.0.0.0" version="24.6.4" etag="v3wTfyDE1U76r59HZ088" type="github">
  <diagram name="第 1 页" id="Zd0etjl_I8bW61ZrmcNX">
    <mxGraphModel>
      <root>
        <mxCell id="0" />
        <mxCell id="1" parent="0" />
      </root>
    </mxGraphModel>
  </diagram>
</mxfile>
